<?xml version="1.0" encoding="utf-8"?>
<!-- Generator: Adobe Illustrator 25.2.1, SVG Export Plug-In . SVG Version: 6.00 Build 0)  -->
<svg version="1.1" id="Layer_1" xmlns="http://www.w3.org/2000/svg" xmlns:xlink="http://www.w3.org/1999/xlink" x="0px" y="0px"
	 viewBox="0 0 612 792" style="enable-background:new 0 0 612 792;" xml:space="preserve">
<style type="text/css">
	.st0{fill:#85241E;}
	.st1{fill:none;stroke:#707071;}
	.st2{fill:#FFFFFF;}
	.st3{font-family:'Copperplate';}
	.st4{font-size:32px;}
</style>
<g id="Component_5_1" transform="translate(0.262 0.271)">
	<g id="Ellipse_4" transform="translate(0 0)">
		<path id="Path_26" class="st0" d="M306.24,295.27c57.06,0,103.31,45.2,103.31,100.96S363.3,497.19,306.24,497.19
			s-103.31-45.2-103.31-100.96S249.18,295.27,306.24,295.27z"/>
		<ellipse id="Ellipse_6" class="st1" cx="306.24" cy="396.23" rx="103.08" ry="100.73"/>
	</g>
	<path id="Path_24" class="st2" d="M324.58,324.36l-37.26,20.95v-4.34c7.6-1.68,12.39-9.2,10.71-16.8
		c-0.02-0.11-0.05-0.22-0.08-0.33c-2.16-7.67-10.05-12.22-17.77-10.24c-7.59,1.68-12.39,9.2-10.71,16.79
		c0.02,0.11,0.05,0.22,0.08,0.34c1.39,5.11,5.47,9.05,10.63,10.24v8.36l-33.46,18.83l0.01,31.49l40.92,22.93l77.79-43.91v-31.24
		L324.58,324.36z M283.76,372.33c1.94,0.04,3.53-1.51,3.57-3.44v-1.17c3.09,0.68,4.68,2.11,4.68,2.7c0,0.79-2.86,3.08-8.32,3.08
		s-8.33-2.29-8.33-3.08c0-0.6,1.65-2.06,4.82-2.73v1.2C280.23,370.83,281.82,372.37,283.76,372.33z M350.46,373.11l-12.02,6.75
		c-1.71,0.94-3.85,0.36-4.87-1.3c-0.94-1.61-0.39-3.68,1.22-4.62c0.04-0.03,0.09-0.05,0.13-0.07l12.02-6.75
		c1.71-0.94,3.85-0.37,4.87,1.3c0.94,1.61,0.39,3.68-1.22,4.62C350.55,373.06,350.5,373.08,350.46,373.11L350.46,373.11z
		 M287.58,387.45l-30.23-17.31l22.84-12.84v3.4c-7.02,0.97-11.96,4.83-11.96,9.73c0,5.68,6.65,9.96,15.46,9.96
		s15.47-4.28,15.47-9.96c0-4.87-4.88-8.71-11.82-9.71v-7.44l37.24-20.94l6.92,3.92c-7.33,0.14-12.82,3.85-12.82,8.74
		c0,0.6,0.09,1.2,0.25,1.78c-1.83-0.53-3.74-0.79-5.64-0.78c-7.55,0-13.24,3.76-13.24,8.74c0,4.99,5.69,8.74,13.24,8.74
		c7.55,0,13.24-3.76,13.24-8.74c0-0.6-0.09-1.2-0.25-1.78c1.83,0.53,3.74,0.79,5.64,0.78c7.55,0,13.24-3.76,13.24-8.74
		c0-0.35-0.03-0.71-0.09-1.05l9.74,5.51L287.58,387.45z"/>
	<g id="The_Lab" transform="translate(37.839 143.022)">
		<text transform="matrix(1 0 0 1 203.085 319.251)" class="st2 st3 st4">The Lab</text>
	</g>
</g>
</svg>
