<svg xmlns="http://www.w3.org/2000/svg" xmlns:xlink="http://www.w3.org/1999/xlink" version="1.1" x="0px" y="0px" viewBox="0 0 96 120" style="enable-background:new 0 0 96 96;" xml:space="preserve"><g><g><path d="M25,28c0,12.7,10.3,23,23,23s23-10.3,23-23S60.7,5,48,5S25,15.3,25,28z M65,28c0,9.4-7.6,17-17,17s-17-7.6-17-17    s7.6-17,17-17S65,18.6,65,28z"/><path d="M55.7,51.8c-5,1.6-10.5,1.6-15.5,0c-10.3-3.4-21.2-0.4-27.7,7.6C7.7,65.3,5,72.9,5,80.6C5,86.3,9.7,91,15.4,91h65.2    C86.3,91,91,86.3,91,80.6c0-7.7-2.7-15.3-7.6-21.3C76.9,51.4,66,48.4,55.7,51.8z M80.6,85H15.4C13,85,11,83,11,80.6    c0-6.4,2.2-12.6,6.2-17.5c3.6-4.4,8.9-6.7,14.6-6.7c2.2,0,4.4,0.3,6.6,1.1c6.2,2,13,2,19.2,0c7.9-2.6,16.2-0.4,21.2,5.7    c4,4.9,6.2,11.1,6.2,17.5C85,83,83,85,80.6,85z"/></g></g><text x="0" y="111" fill="#000000" font-size="5px" font-weight="bold" font-family="'Helvetica Neue', Helvetica, Arial-Unicode, Arial, Sans-serif">Created by icongeek</text><text x="0" y="116" fill="#000000" font-size="5px" font-weight="bold" font-family="'Helvetica Neue', Helvetica, Arial-Unicode, Arial, Sans-serif">from the Noun Project</text></svg>