<svg xmlns="http://www.w3.org/2000/svg" xmlns:xlink="http://www.w3.org/1999/xlink" version="1.1" x="0px" y="0px" viewBox="0 0 64 80" style="enable-background:new 0 0 64 64;" xml:space="preserve"><style type="text/css">
	.st0{display:none;}
	.st1{display:inline;}
</style><g><g><g><path d="M61.77,28.3c-0.05-0.12-0.12-0.23-0.22-0.33l-8-8c-0.09-0.09-0.2-0.17-0.33-0.22c-0.12-0.05-0.25-0.08-0.38-0.08H13.42     c-0.13,0-0.26,0.03-0.38,0.08c-0.12,0.05-0.23,0.12-0.33,0.22l-8,8c-0.09,0.09-0.17,0.2-0.22,0.33     c-0.05,0.12-0.08,0.25-0.08,0.38v6c0,0.02,0.01,0.04,0.01,0.06c0,0.01-0.01,0.02-0.01,0.03c0,0.55,0.45,1,1,1h1.13v1.81H5.42     c-0.55,0-1,0.45-1,1c0,0.01,0.01,0.02,0.01,0.03c0,0.02-0.01,0.04-0.01,0.06v6c0,0.55,0.45,1,1,1h2.09V48c0,0.55,0.45,1,1,1     h49.25c0.55,0,1-0.45,1-1v-2.31h2.08c0.55,0,1-0.45,1-1v-16C61.85,28.56,61.82,28.43,61.77,28.3z M32.14,33.78H6.42v-4.09h25.72     V33.78z M7.83,27.69l6-6h38.6l6,6H7.83z M6.42,39.59h25.72v4.09H6.42V39.59z M56.76,47H9.51v-1.31h47.25V47z M59.85,43.69H34.14     v-14h25.71V43.69z"/><path d="M39.3,37.69h4c0.55,0,1-0.45,1-1s-0.45-1-1-1h-4c-0.55,0-1,0.45-1,1S38.75,37.69,39.3,37.69z"/><path d="M36.65,37.98c0.71,0,1.29-0.58,1.29-1.29s-0.58-1.29-1.29-1.29c-0.71,0-1.29,0.58-1.29,1.29S35.93,37.98,36.65,37.98z"/><path d="M55.64,39.69c1.65,0,3-1.35,3-3s-1.35-3-3-3s-3,1.35-3,3S53.98,39.69,55.64,39.69z M55.64,35.69c0.55,0,1,0.45,1,1     s-0.45,1-1,1s-1-0.45-1-1S55.09,35.69,55.64,35.69z"/></g></g></g><text x="0" y="79" fill="#000000" font-size="5px" font-weight="bold" font-family="'Helvetica Neue', Helvetica, Arial-Unicode, Arial, Sans-serif">Created by AB Designs</text><text x="0" y="84" fill="#000000" font-size="5px" font-weight="bold" font-family="'Helvetica Neue', Helvetica, Arial-Unicode, Arial, Sans-serif">from the Noun Project</text></svg>